<svg width="327" height="200" viewBox="0 0 327 200" fill="none" xmlns="http://www.w3.org/2000/svg">
<path d="M200 100C200 155.228 155.228 200 100 200C44.7715 200 0 155.228 0 100C0 44.7715 44.7715 0 100 0C155.228 0 200 44.7715 200 100ZM14.0836 100C14.0836 147.45 52.5497 185.916 100 185.916C147.45 185.916 185.916 147.45 185.916 100C185.916 52.5497 147.45 14.0836 100 14.0836C52.5497 14.0836 14.0836 52.5497 14.0836 100Z" fill="#6760FF" fill-opacity="0.2"/>
<path d="M327 100C327 155.228 282.228 200 227 200C171.772 200 127 155.228 127 100C127 44.7715 171.772 0 227 0C282.228 0 327 44.7715 327 100ZM141.084 100C141.084 147.45 179.55 185.916 227 185.916C274.45 185.916 312.916 147.45 312.916 100C312.916 52.5497 274.45 14.0836 227 14.0836C179.55 14.0836 141.084 52.5497 141.084 100Z" fill="#FFBF18" fill-opacity="0.2"/>
<path d="M263 100C263 113.807 218.228 125 163 125C107.772 125 63 113.807 63 100C63 86.1929 107.772 75 163 75C218.228 75 263 86.1929 263 100ZM77.0836 100C77.0836 111.863 115.55 121.479 163 121.479C210.45 121.479 248.916 111.863 248.916 100C248.916 88.1374 210.45 78.5209 163 78.5209C115.55 78.5209 77.0836 88.1374 77.0836 100Z" fill="#6760FF" fill-opacity="0.2"/>
</svg>
