<svg width="41" height="25" viewBox="0 0 41 25" fill="none" xmlns="http://www.w3.org/2000/svg">
<path d="M25.0765 12.5C25.0765 19.4036 19.4629 25 12.5382 25C5.61356 25 0 19.4036 0 12.5C0 5.59644 5.61356 0 12.5382 0C19.4629 0 25.0765 5.59644 25.0765 12.5ZM1.76583 12.5C1.76583 18.4313 6.5888 23.2396 12.5382 23.2396C18.4877 23.2396 23.3106 18.4313 23.3106 12.5C23.3106 6.56871 18.4877 1.76045 12.5382 1.76045C6.5888 1.76045 1.76583 6.56871 1.76583 12.5Z" fill="#6760FF"/>
<path d="M41.0003 12.5C41.0003 19.4036 35.3867 25 28.4621 25C21.5374 25 15.9238 19.4036 15.9238 12.5C15.9238 5.59644 21.5374 0 28.4621 0C35.3867 0 41.0003 5.59644 41.0003 12.5ZM17.6897 12.5C17.6897 18.4313 22.5126 23.2396 28.4621 23.2396C34.4115 23.2396 39.2344 18.4313 39.2344 12.5C39.2344 6.56871 34.4115 1.76045 28.4621 1.76045C22.5126 1.76045 17.6897 6.56871 17.6897 12.5Z" fill="white"/>
<path d="M32.9759 12.5C32.9759 14.2259 27.3623 15.625 20.4376 15.625C13.513 15.625 7.89941 14.2259 7.89941 12.5C7.89941 10.7741 13.513 9.375 20.4376 9.375C27.3623 9.375 32.9759 10.7741 32.9759 12.5ZM9.66525 12.5C9.66525 13.9828 14.4882 15.1849 20.4376 15.1849C26.3871 15.1849 31.21 13.9828 31.21 12.5C31.21 11.0172 26.3871 9.81511 20.4376 9.81511C14.4882 9.81511 9.66525 11.0172 9.66525 12.5Z" fill="#6760FF"/>
</svg>
